<svg width="148" height="65" viewBox="0 0 148 65" fill="none" xmlns="http://www.w3.org/2000/svg">
<g id="Group">
<path id="Vector" d="M144.874 15.5671C150.324 13.7373 147.251 11.4678 146.007 11.9585C130.989 17.8707 142.487 18.0036 142.651 19.7312C142.699 20.2424 141.56 20.6479 141.072 20.8114C138.845 21.5509 130.62 23.759 134.661 25.0369C139.545 24.4405 150.279 20.7262 145.761 17.6356C144.557 16.8075 143.487 16.034 144.874 15.5671Z" fill="#14132B"/>
<path id="Vector_2" d="M127.03 23.4696C127.776 23.2072 127.848 23.9637 128.036 24.5906C129.158 28.3764 138.106 14.4566 129.331 19.2272C129.321 19.2101 129.308 19.1931 129.297 19.1727C126.774 20.8083 127.395 20.4743 126.764 20.4607C126.767 20.3789 126.743 20.2801 126.777 20.2154C129.748 15.0529 125.393 14.0784 121.615 22.955C119.149 28.7547 126.402 23.6911 127.03 23.4696Z" fill="#14132B"/>
<path id="Vector_3" d="M32.5984 24.1033C33.9795 22.0928 48.728 20.3175 54.1568 20.205C55.3605 20.1812 56.4688 17.2029 51.8789 17.8538C32.1245 20.6548 32.0324 25.4561 40.0699 8.97356C42.4433 4.11091 42.8252 6.19977 45.2872 3.46006C46.5183 2.0902 44.786 0.36936 43.9437 0.791903C34.8491 5.3615 24.7792 22.9038 19.6471 24.3453C-6.87289 31.8011 0.912256 33.0687 1.53971 32.9086C12.8304 30.0257 29.0725 17.8538 7.48001 41.5673C6.43995 42.7088 4.82017 44.5455 6.20124 45.2577C9.09638 46.7434 20.6769 26.5227 24.5098 25.2278C37.0145 21.0024 14.3854 39.3353 20.37 41.615C22.0819 42.2658 22.2183 39.6897 22.873 38.5107C27.2992 30.5369 26.8491 32.4792 32.5984 24.1033ZM27.3947 22.4029C24.428 22.8391 34.5319 13.0252 34.8593 13.6658C32.6598 22.4404 29.1407 22.1439 27.3947 22.4029Z" fill="#14132B"/>
<path id="Vector_4" d="M96.1106 31.6377C97.3996 31.682 97.744 30.9868 98.4226 29.651C99.7014 27.1327 102.119 24.485 103.493 23.4354C105.451 21.9395 103.729 26.4785 103.62 27.1021C102.961 30.9084 108.718 25.9946 109.345 25.4971C110.123 24.8803 110.075 26.2229 110.269 26.8499C110.747 28.3936 112.128 28.2709 112.404 27.4701C113.277 24.9587 117.724 17.7651 114.337 18.5523C109.645 19.6461 108.83 25.9196 107.504 20.3447C107.224 19.1691 105.383 18.1502 102.095 21.2818C100.632 22.6755 99.6571 20.9444 98.4567 22.8255C98.4567 22.8255 96.6187 26.9044 95.3263 29.2796C94.8216 30.203 95.0126 31.6002 96.1106 31.6377Z" fill="#14132B"/>
<path id="Vector_5" d="M71.7664 33.7708C74.0068 29.7874 75.6607 25.6609 77.5669 26.4923C79.2924 27.2454 72.1995 35.0452 76.3052 35.3144C77.0963 35.3655 80.9837 29.3478 80.7587 25.3883C80.6734 23.8481 79.2242 22.601 76.9258 23.5176C73.6692 24.8158 73.4612 24.2127 72.977 25.3372C71.5925 28.5573 70.2182 28.7856 68.7042 32.861C67.8619 35.127 70.283 36.4082 71.7664 33.7708Z" fill="#14132B"/>
<path id="Vector_6" d="M54.0545 35.1711C54.5046 38.4525 62.5898 34.2919 64.5676 28.9387C67.6639 20.5766 52.7655 25.7322 54.0545 35.1711ZM58.2795 31.4159C60.2096 29.4702 59.7629 27.2485 62.0408 28.1515C63.2241 28.6184 60.1619 32.1247 58.1806 32.5575C57.7032 32.2951 57.9351 31.7669 58.2795 31.4159Z" fill="#14132B"/>
<path id="Vector_7" d="M43.9234 35.764C45.0249 39.7917 48.8646 30.7072 49.0931 29.2965C49.3113 27.9505 48.7896 26.9419 47.2585 26.3694C42.7777 27.6165 41.7581 29.8553 41.3079 30.4789C33.915 40.7322 37.9354 41.4989 41.4614 35.9139C47.8382 25.8105 43.5415 34.3703 43.9234 35.764Z" fill="#14132B"/>
<path id="Vector_8" d="M91.8039 24.1852C92.1688 23.4218 91.5754 22.6279 91.0093 22.5597C90.3648 22.4813 89.8192 22.6994 89.4373 23.2208C78.0477 38.6949 86.5217 35.3077 91.8039 24.1852Z" fill="#14132B"/>
<path id="Vector_9" d="M93.7406 18.3174C94.4908 17.946 94.6 17.0497 94.3579 16.2455C94.1635 15.6082 93.6827 15.2708 93.0518 15.1925C92.1413 15.08 91.6162 16.0342 91.4559 16.6612C91.1081 18.0209 92.6119 18.8797 93.7406 18.3174Z" fill="#14132B"/>
<path id="Vector_10" d="M69.976 55.4941C132.404 40.4768 133.85 40.6608 133.516 38.4049C133.212 36.3604 128.551 38.0676 122.426 39.7509C75.3639 40.1632 21.5361 51.9979 22.2386 56.0734C22.3852 56.9355 23.439 57.3614 27.3912 56.2029C56.3562 47.493 88.5506 41.6047 120.803 40.1973C56.1516 57.9782 61.7407 56.639 59.4969 57.0173C57.6179 57.3069 52.4995 58.2883 48.1005 59.3515C34.3443 62.6534 37.8669 65.4136 43.4321 63.7916C45.4611 63.1816 44.4926 63.4542 48.5336 62.3706C52.8575 61.195 57.9146 60.0671 59.7867 59.7195C95.9845 52.492 117.57 56.6595 139.439 60.3022C119.596 54.816 95.2275 52.6351 69.976 55.4941Z" fill="#14132B"/>
</g>
</svg>
